<?xml version="1.0" standalone="no"?><svg width="450" height="540" xmlns="http://www.w3.org/2000/svg" xmlns:xlink="http://www.w3.org/1999/xlink"><style>line.bg { stroke: rgba(3, 148, 172, 0.7); stroke-width: 1px; }circle.bg { fill: rgba(100, 220, 240, 0.7); }line.bg-sub { stroke: rgba(140, 240, 240, 0.5); stroke-width: 1px; }g.u rect, g.u path, g.u circle { fill: none; stroke-width: 2px; stroke-linejoin: round; }pattern line { vector-effect: non-scaling-stroke; }.zoomed-out pattern line { vector-effect: none; }text { stroke-width: 0px; font-family: sans-serif; }text tspan { vector-effect: non-scaling-stroke; white-space: pre; }.ui-dark { background: rgb(51, 51, 51); }.ui-dark line.bg { stroke: rgba(172, 232, 242, 0.57); stroke-width: 1px; }.ui-dark circle.bg { fill: rgba(100, 220, 240, 0.3); }.ui-dark line.bg-sub { stroke: rgba(140, 240, 240, 0.1); stroke-width: 1px; }rect.marquee { fill: rgba(234, 255, 231, 0.3); stroke: rgb(98, 137, 95); stroke-width: 1px; stroke-dasharray: 4px; vector-effect: non-scaling-stroke; }rect.highlight { fill: blue; opacity: 0.5; }.bg rect { stroke: rgba(3, 148, 172, 0.7); stroke-width: 1px; }</style><defs class="ic"></defs><defs><marker id="arrowhead" viewBox="0 0 15 15" refX="10" refY="5" markerWidth="6" markerHeight="6" orient="auto-start-reverse"><path stroke="context-stroke" fill="context-stroke" d="M 0 0 L 10 5 L 0 10 z"></path></marker></defs><g transform="translate(-585, -150)"><defs xmlns="http://www.w3.org/2000/svg"><pattern id="pattern_bg" viewBox="0 0 60 60" width="0.03125" height="0.06263048016701461" patternTransform="scale(0.5 0.5) translate(774.7447065550685 453.36683727417045)"><line class="bg" x1="0" y1="0" x2="60" y2="0"/><line class="bg" x1="0" y1="0" y2="60" x2="0"/><line class="bg-sub" x1="0" y1="15" x2="60" y2="15"/><line class="bg-sub" y1="0" x1="15" y2="60" x2="15"/><line class="bg-sub" x1="0" y1="30" x2="60" y2="30"/><line class="bg-sub" y1="0" x1="30" y2="60" x2="30"/><line class="bg-sub" x1="0" y1="45" x2="60" y2="45"/><line class="bg-sub" y1="0" x1="45" y2="60" x2="45"/></pattern></defs><g xmlns="http://www.w3.org/2000/svg" class="bg"><rect x="-774.7447065550685" y="-453.36683727417045" width="3840" height="1916" style="fill: url(&quot;#pattern_bg&quot;);"/></g><g xmlns="http://www.w3.org/2000/svg" class="u current" data-layer="Layer 1" style="visibility: visible;"><path d="M 720 240 L 840 240 L 900 300 L 900 360 L 840 420 L 720 420 L 660 360 L 660 300 Z" class="" style="fill: rgba(0, 0, 0, 0); stroke-width: 2px; stroke-linejoin: round;" stroke="rgba(41, 173, 255, 1)" data-mut=""/><path d="M 660 360 L 660 480 L 720 420 Z" class="" style="fill: rgba(0, 0, 0, 0); stroke-width: 2px; stroke-linejoin: round;" stroke="rgba(171, 82, 54, 1)" data-mut=""/><path d="M 900 360 L 960 480 L 960 600 L 840 420 Z" class="" style="fill: rgba(0, 0, 0, 0); stroke-width: 2px; stroke-linejoin: round;" stroke="rgba(0, 135, 81, 1)" data-mut=""/><text x="750" y="343" fill="rgba(41, 173, 255, 1)" stroke="rgba(0, 0, 0, 0)" style="font-family: sans-serif; font-size: 32px;" data-mut="" transform="matrix(1, 0, 0, 1, -30, -73)"><tspan x="750" dy="0em" data-mut="">1</tspan></text><text x="675" y="433" fill="rgba(171, 82, 54, 1)" stroke="rgba(0, 0, 0, 0)" style="font-family: sans-serif; font-size: 32px;" data-mut="" transform="matrix(1, 0, 0, 1, -15, -28)"><tspan x="675" dy="0em" data-mut="">2</tspan></text><text x="900" y="463" fill="rgba(0, 135, 81, 1)" stroke="rgba(0, 0, 0, 0)" style="font-family: sans-serif; font-size: 32px;" data-mut="" transform="matrix(1, 0, 0, 1, -45, -28)"><tspan x="900" dy="0em" data-mut="">3</tspan></text></g></g></svg>